<?xml version="1.0" standalone="no"?>
<!DOCTYPE svg PUBLIC "-//W3C//DTD SVG 20010904//EN"
 "http://www.w3.org/TR/2001/REC-SVG-20010904/DTD/svg10.dtd">
<svg version="1.0" xmlns="http://www.w3.org/2000/svg"
 width="1536.000000pt" height="1536.000000pt" viewBox="0 0 1536.000000 1536.000000"
 preserveAspectRatio="xMidYMid meet">


<g transform="translate(0.000000,1536.000000) scale(0.100000,-0.100000)"
fill="#000000" stroke="none">
<path d="M7870 10669 c-595 -55 -1150 -227 -1680 -519 -69 -38 -175 -91 -236
-119 -138 -63 -434 -222 -579 -311 -559 -342 -1006 -716 -1356 -1135 -314
-376 -539 -797 -638 -1190 -49 -199 -56 -259 -55 -510 0 -220 2 -250 26 -360
79 -359 264 -690 545 -969 132 -133 230 -212 393 -321 310 -207 656 -357 1070
-464 459 -118 881 -160 1642 -162 329 -1 416 4 663 42 316 48 727 163 1010
284 145 62 934 453 1055 523 770 443 1375 979 1764 1562 404 605 543 1221 406
1795 -167 699 -793 1292 -1685 1598 -452 155 -868 224 -1480 248 -392 15 -753
19 -865 8z m505 -169 c621 -39 1217 -274 1664 -655 379 -322 641 -768 742
-1261 12 -60 32 -125 43 -144 30 -48 96 -196 96 -214 0 -8 5 -25 10 -38 6 -13
16 -59 24 -103 l13 -80 8 90 c10 117 0 379 -18 480 -143 769 -639 1412 -1377
1782 -69 34 -117 63 -108 63 26 0 354 -68 438 -92 366 -100 687 -243 975 -433
440 -291 729 -666 838 -1090 46 -182 52 -231 52 -435 -1 -161 -5 -215 -24
-310 -93 -473 -298 -871 -674 -1310 -199 -232 -548 -550 -807 -734 -58 -41
-124 -89 -147 -106 -24 -17 -43 -28 -43 -25 0 3 41 51 90 106 271 302 551 745
663 1049 37 101 61 193 55 210 -2 6 -23 -15 -48 -46 -25 -31 -80 -88 -122
-127 -68 -60 -85 -84 -139 -186 -350 -660 -878 -1210 -1509 -1569 -322 -183
-704 -339 -1048 -427 -536 -138 -1140 -154 -1600 -45 -407 97 -759 261 -1079
501 -180 136 -376 345 -505 539 -182 274 -323 662 -354 975 -3 40 -20 106 -39
155 -66 171 -109 361 -99 436 4 30 3 35 -5 22 -6 -9 -19 -97 -28 -195 -44
-470 52 -908 295 -1343 183 -328 445 -610 772 -829 106 -72 293 -177 396 -225
44 -19 72 -36 63 -36 -37 0 -425 83 -539 116 -348 101 -645 235 -904 408 -478
320 -760 700 -872 1181 -27 112 -28 134 -28 335 0 239 10 314 69 519 152 530
525 1083 1026 1522 215 189 235 204 575 447 40 28 76 52 80 52 3 0 -15 -21
-40 -46 -159 -156 -369 -430 -530 -691 -123 -199 -235 -461 -253 -589 l-6 -48
32 23 c18 13 65 56 104 96 59 60 88 102 160 234 196 358 418 653 716 952 442
442 935 745 1536 944 412 137 720 189 1185 203 36 1 137 -3 225 -8z"/>
<path d="M7288 10108 c-97 -104 -174 -276 -239 -530 -24 -99 -79 -385 -79
-417 0 -5 -24 -11 -52 -15 -121 -14 -566 -133 -774 -207 -356 -125 -778 -350
-1054 -560 -361 -275 -593 -605 -641 -913 -15 -95 -5 -244 22 -331 170 -550
859 -927 1919 -1050 154 -18 429 -35 572 -35 53 0 99 -4 102 -8 3 -5 1 -26 -5
-48 -5 -21 -31 -131 -59 -244 -63 -261 -75 -343 -61 -397 23 -84 110 -134 240
-137 124 -2 201 39 254 137 22 41 22 48 21 370 l-1 327 32 0 c17 0 103 5 189
11 87 6 159 9 162 7 2 -3 -3 -74 -11 -159 -23 -249 -36 -482 -29 -535 17 -123
91 -176 249 -176 93 0 143 15 193 57 30 27 46 50 57 87 14 47 13 77 -10 372
-14 177 -25 341 -25 366 l0 46 178 39 c635 139 1225 376 1662 668 229 154 469
375 593 548 83 116 158 265 193 384 65 218 13 463 -144 685 -60 85 -198 222
-292 291 -375 275 -960 465 -1610 523 -237 21 -464 31 -457 19 4 -5 73 -13
154 -16 491 -22 1038 -150 1387 -324 500 -250 741 -592 696 -988 -30 -269
-187 -526 -476 -779 -507 -444 -1364 -767 -2295 -866 -306 -32 -852 -32 -1189
0 -441 43 -835 144 -1145 295 -226 110 -399 244 -516 400 -84 112 -113 173
-150 310 -29 110 -21 282 21 406 55 164 158 325 308 482 299 311 753 583 1277
764 178 62 492 149 501 140 2 -2 -2 -55 -10 -118 -21 -165 -34 -300 -56 -604
-27 -378 -53 -1045 -41 -1077 3 -10 39 -34 79 -54 91 -44 144 -91 173 -152 31
-63 36 -219 15 -452 -8 -96 -12 -178 -7 -183 4 -4 70 -6 147 -5 l139 3 -2 70
c-1 39 -9 205 -18 370 -12 230 -17 642 -22 1768 -7 1609 -2 1502 -65 1435z"/>
<path d="M8265 10111 c-6 -11 -1 -515 10 -1043 3 -130 3 -248 -1 -262 -8 -32
-30 -40 -53 -17 -16 16 -19 44 -24 242 -18 598 -28 921 -33 997 -5 75 -8 83
-25 80 -20 -3 -20 -12 -18 -373 6 -900 5 -950 -11 -950 -12 0 -16 18 -21 80
-6 70 -24 719 -32 1112 -2 119 -4 133 -19 133 -17 0 -18 -18 -19 -232 -1 -395
-16 -1062 -24 -1080 -9 -22 -31 -23 -38 -4 -3 8 -2 266 3 573 13 809 15 743
-14 743 -24 0 -24 -2 -30 -112 -3 -62 -10 -268 -16 -458 -21 -698 -26 -760
-55 -760 -37 0 -38 27 -30 687 l7 643 -26 0 c-19 0 -27 -6 -30 -22 -3 -13 -14
-187 -26 -388 -12 -201 -23 -394 -26 -430 -33 -466 -42 -776 -24 -839 6 -21
40 -65 90 -116 143 -148 156 -200 146 -630 -8 -386 -24 -815 -37 -1029 -5 -92
-8 -170 -6 -172 4 -5 299 36 305 41 2 2 -1 117 -7 257 -29 667 -40 1221 -26
1293 16 82 52 141 143 237 119 125 119 126 103 440 -7 128 -16 292 -21 363 -6
72 -19 292 -30 490 -24 427 -30 505 -41 505 -4 0 -14 3 -22 6 -8 3 -18 0 -22
-5z"/>

</g>
</svg>
