<svg xmlns="http://www.w3.org/2000/svg" viewBox="0 0 64 64" fill="none">
  <defs>
    <linearGradient id="orbitGradient" x1="0%" y1="0%" x2="100%" y2="100%">
      <stop offset="0%" style="stop-color:#008080;stop-opacity:1" />
      <stop offset="100%" style="stop-color:#000000;stop-opacity:1" />
    </linearGradient>
  </defs>

  <!-- Fork, made smaller and centered -->
  <path d="M31 30v-2h0.5v2h-0.5zm0 0v-2h-0.5v2h0.5zm0-2c0.75 0 1.5 0.75 1.5 1.5h-3c0-0.75 0.75-1.5 1.5-1.5zm-0.5 3v7h1v-7h-1z" fill="url(#orbitGradient)"/>
  <!-- Knife, made smaller and centered -->
  <path d="M34 30.25v-1.5h0.5v1.5h-0.5zm0 0v-1.5h-0.5v1.5h0.5zm-0.5 0.25v6.5l1.5-1v-4.5l-1.5-1z" fill="url(#orbitGradient)"/>

  <!-- Orbit 1 -->
  <ellipse cx="32" cy="32" rx="20" ry="10" fill="none" stroke="url(#orbitGradient)" stroke-width="2">

  </ellipse>

  <!-- Orbit 2 -->
  <ellipse cx="32" cy="32" rx="10" ry="20" fill="none" stroke="url(#orbitGradient)" stroke-width="2">

  </ellipse>

  <!-- Orbit 3, rotated 45 degrees -->
  <ellipse cx="32" cy="32" rx="20" ry="10" fill="none" stroke="url(#orbitGradient)" stroke-width="2" transform="rotate(45 32 32)">

  </ellipse>

  <!-- Orbit 4, rotated -45 degrees -->
  <ellipse cx="32" cy="32" rx="20" ry="10" fill="none" stroke="url(#orbitGradient)" stroke-width="2" transform="rotate(-45 32 32)">
 
  </ellipse>
</svg>
